<svg xmlns="http://www.w3.org/2000/svg" xmlns:xlink="http://www.w3.org/1999/xlink" viewBox="0 0 216 216"><defs><style>.cls-1{fill:none;}.cls-2{fill:#d60000;}.cls-3{clip-path:url(#clip-path);}.cls-4{fill:#e4e4e4;}.cls-5{fill:#e3e3e3;}.cls-6{fill:#e2e2e2;}.cls-7{fill:#e1e1e1;}.cls-8{fill:#e0e0e0;}.cls-9{fill:#dfdfdf;}.cls-10{fill:#dedede;}.cls-11{fill:#ddd;}.cls-12{fill:#dcdcdc;}.cls-13{fill:#dbdbdb;}.cls-14{fill:#dadada;}.cls-15{fill:#d9d9d9;}.cls-16{fill:#d7d7d7;}.cls-17{fill:#d6d6d6;}.cls-18{fill:#d5d5d5;}.cls-19{fill:#d4d4d4;}.cls-20{fill:#d3d3d3;}.cls-21{fill:#d2d2d2;}.cls-22{fill:#eee;}.cls-23{fill:#ededed;}.cls-24{fill:#ececec;}.cls-25{fill:#ebebeb;}.cls-26{fill:#eaeaea;}.cls-27{fill:#e9e9e9;}.cls-28{fill:#e8e8e8;}.cls-29{fill:#e7e7e7;}.cls-30{fill:#e6e6e6;}.cls-31{fill:#e5e5e5;}.cls-32{fill:#d1d1d1;}.cls-33{fill:#d0d0d0;}.cls-34{fill:#cfcfcf;}.cls-35{fill:#cecece;}.cls-36{fill:#cdcdcd;}.cls-37{fill:#ccc;}.cls-38{fill:#cbcbcb;}.cls-39{fill:#cacaca;}.cls-40{fill:#c9c9c9;}.cls-41{fill:#c8c8c8;}.cls-42{fill:#c7c7c7;}.cls-43{fill:#c6c6c6;}.cls-44{fill:#c5c5c5;}.cls-45{fill:#c4c4c4;}.cls-46{fill:#c3c3c3;}.cls-47{clip-path:url(#clip-path-2);}.cls-48{clip-path:url(#clip-path-3);}.cls-49{clip-path:url(#clip-path-4);}.cls-50{clip-path:url(#clip-path-5);}.cls-51{clip-path:url(#clip-path-6);}.cls-52{clip-path:url(#clip-path-7);}</style><clipPath id="clip-path"><path class="cls-1" d="M112.65,85.63a.6.6,0,0,0-.11-.06,2.21,2.21,0,0,1-1.78-1.91,3.79,3.79,0,0,1-.07-.82c0-1.1,0-2.19,0-3.29v-.38h-.38c-3.12,0-6.24,0-9.36,0a5.45,5.45,0,0,1-1.79-.33,2.75,2.75,0,0,1-1.41-3.76,8.4,8.4,0,0,1,.79-1.24q5.5-7.36,11-14.71c.36-.49.76-.94,1.14-1.4a2.58,2.58,0,0,1,3-.78,2.45,2.45,0,0,1,1.74,2.22,6.16,6.16,0,0,1,.07,1V74.89c.34,0,.67,0,1,0a13.6,13.6,0,0,1,1.81.26,1.53,1.53,0,0,1,1.25,1.63,3.57,3.57,0,0,1,0,.73A1.7,1.7,0,0,1,118.14,79a8.4,8.4,0,0,1-1.32.19c-.44,0-.88,0-1.36,0v.35c0,1.12,0,2.23,0,3.35a5.17,5.17,0,0,1-.17,1.17,2,2,0,0,1-1.61,1.52.77.77,0,0,0-.16.07ZM102.51,74.87l.36,0c2.48,0,5,0,7.45,0,.3,0,.37-.09.37-.38q0-5.13,0-10.27c0-.1,0-.19,0-.38Z"/></clipPath><clipPath id="clip-path-2"><path class="cls-1" d="M33.7,67.7a4.93,4.93,0,0,1,.28-.76,2.34,2.34,0,0,1,1.94-1.17c.18,0,.36,0,.57,0,0-.12,0-.24,0-.36,0-1.25,0-2.51.06-3.76a2.85,2.85,0,0,1,5.68-.41c.08,1.37.08,2.75.11,4.12,0,.13,0,.26,0,.43.47,0,.9,0,1.33,0a4.3,4.3,0,0,1,1.19.2,2.17,2.17,0,0,1,1.19,3,1.75,1.75,0,0,1-1.2,1c-.65.15-1.31.22-2,.31a4.5,4.5,0,0,1-.52,0c0,.12,0,.23,0,.34,0,3,0,5.93,0,8.89a5.88,5.88,0,0,0,.11,1.11.77.77,0,0,0,.92.73c.64,0,1.27-.16,1.91-.24a2.09,2.09,0,0,1,2.33,1.19A2.27,2.27,0,0,1,47,84.91a4.53,4.53,0,0,1-2.29,1,11.68,11.68,0,0,1-4.41,0,4.14,4.14,0,0,1-3.55-3.73,19.51,19.51,0,0,1-.24-2.75c0-2.91,0-5.83,0-8.74v-.37c-.34,0-.66-.07-1-.13a2.14,2.14,0,0,1-1.79-1.79.47.47,0,0,0,0-.1Z"/></clipPath><clipPath id="clip-path-3"><path class="cls-1" d="M78.71,67.82l.74-.67a8.09,8.09,0,0,1,10.62.37A9.56,9.56,0,0,1,92.91,73a14,14,0,0,1-.5,7.15,8.51,8.51,0,0,1-3.36,4.52,8,8,0,0,1-8.08.61,12,12,0,0,1-2-1.41l-.27-.24V84c0,1.84,0,3.67,0,5.5a7,7,0,0,1-.29,1.88,2.75,2.75,0,0,1-4,1.57,2.07,2.07,0,0,1-1-1.15,6.31,6.31,0,0,1-.32-2.2q0-10.53,0-21a4.07,4.07,0,0,1,.39-1.91,2.76,2.76,0,0,1,5,.62C78.61,67.44,78.65,67.62,78.71,67.82Zm8.57,7.77a7.24,7.24,0,0,0-.79-3.6,3.58,3.58,0,0,0-3.2-2.06,3.88,3.88,0,0,0-3.74,2.5A8.39,8.39,0,0,0,79,76.84a5.59,5.59,0,0,0,.81,2.51,3.8,3.8,0,0,0,3.68,2,3.63,3.63,0,0,0,3-2.24A7.53,7.53,0,0,0,87.28,75.59Z"/></clipPath><clipPath id="clip-path-4"><path class="cls-1" d="M63,83.59c-.52.33-1,.68-1.57,1A10,10,0,0,1,55.19,86a6.13,6.13,0,0,1-5.25-3.3,5.64,5.64,0,0,1,2.68-7.81A15.61,15.61,0,0,1,55.76,74c2.09-.47,4.17-1,6.26-1.44.21,0,.3-.12.24-.35s-.1-.59-.16-.89a1.93,1.93,0,0,0-1.82-1.63,8.65,8.65,0,0,0-2.78.08,3.45,3.45,0,0,0-2.19,1.55,12.82,12.82,0,0,0-.72,1.09,2,2,0,0,1-2.25.94,2.4,2.4,0,0,1-2.08-3.19,5.44,5.44,0,0,1,2.84-3.56,10.4,10.4,0,0,1,4.27-1.26,18.73,18.73,0,0,1,5.44.23,6.36,6.36,0,0,1,3.61,1.83,6.11,6.11,0,0,1,1.4,3,24.08,24.08,0,0,1,.25,4.87c0,1.28,0,2.55,0,3.82a11.67,11.67,0,0,0,.65,3.2,8.86,8.86,0,0,1,.21.89,2.56,2.56,0,0,1-2,2.76,2.59,2.59,0,0,1-2.72-.9C63.76,84.6,63.38,84.09,63,83.59Zm-5.22-6a4.41,4.41,0,0,0-2,.86,1.5,1.5,0,0,0-.53,1,2.1,2.1,0,0,0,1.7,2.39,4.69,4.69,0,0,0,4.24-1.19c1.21-1.11,1.12-2.62,1.19-4.09h-.13"/></clipPath><clipPath id="clip-path-5"><path class="cls-1" d="M153.05,83.53c-.42.35-.79.7-1.19,1a7.94,7.94,0,0,1-5.5,1.47,6.78,6.78,0,0,1-3.51-1.2,5.84,5.84,0,0,1-2.44-4.2,22.24,22.24,0,0,1-.17-2.45c0-3.11,0-6.21,0-9.32a6,6,0,0,1,.14-1.33,2.67,2.67,0,0,1,2.85-2.19A2.74,2.74,0,0,1,146,67.57a6.64,6.64,0,0,1,.12,1.26c0,2.81,0,5.63,0,8.44a10.57,10.57,0,0,0,.22,1.77c.38,1.89,1.69,2.59,3.53,2.1a3.62,3.62,0,0,0,2.74-3.48c.09-1.79.1-3.58.13-5.37,0-1.24,0-2.49,0-3.73a3.33,3.33,0,0,1,.8-2.36,2.85,2.85,0,0,1,3-.76,2.63,2.63,0,0,1,1.91,2.29,5.14,5.14,0,0,1,.07.88V82.87a3.31,3.31,0,0,1-.76,2.34,2.58,2.58,0,0,1-2.63.77,2.61,2.61,0,0,1-2-2C153.12,83.85,153.09,83.71,153.05,83.53Z"/></clipPath><clipPath id="clip-path-6"><path class="cls-1" d="M169.5,67.76c.22-.2.4-.38.6-.55a7.71,7.71,0,0,1,5.72-1.89,6.79,6.79,0,0,1,4,1.37,6.23,6.23,0,0,1,2.45,4.72c.08,1.28.07,2.57.07,3.85q0,3.78,0,7.56a3.4,3.4,0,0,1-.81,2.36,2.73,2.73,0,0,1-2.89.77,2.69,2.69,0,0,1-2-2.19,6.21,6.21,0,0,1-.13-1.29c0-2.79,0-5.57,0-8.35a7.81,7.81,0,0,0-.35-2.45A2.1,2.1,0,0,0,174,70.05,3.78,3.78,0,0,0,170,73.73c-.08,1.41-.11,2.83-.13,4.24,0,1.58,0,3.16,0,4.74a4.6,4.6,0,0,1-.18,1.28,2.84,2.84,0,0,1-5.49-.08,4.64,4.64,0,0,1-.15-1.17q0-7.14,0-14.3a3.25,3.25,0,0,1,.77-2.33,2.77,2.77,0,0,1,4.64,1.28C169.44,67.5,169.47,67.62,169.5,67.76Z"/></clipPath><clipPath id="clip-path-7"><path class="cls-1" d="M133.13,70.23v.46c0,4,0,8,0,12A4.88,4.88,0,0,1,133,84a2.76,2.76,0,0,1-2.89,2.1,2.79,2.79,0,0,1-2.64-2.27,5.75,5.75,0,0,1-.13-1.17c0-4,0-8,0-12v-.37c-.51,0-1,0-1.47-.08a2.26,2.26,0,0,1-2.06-1.66,2,2,0,0,1,1.17-2.44,7,7,0,0,1,1.59-.33,5,5,0,0,1,.78,0,15.07,15.07,0,0,1,0-1.65,17,17,0,0,1,.37-2.48,4.11,4.11,0,0,1,2.95-3.07,11.52,11.52,0,0,1,6.11-.16,3.71,3.71,0,0,1,1.36.68,1.94,1.94,0,0,1,.68,2.15,1.85,1.85,0,0,1-1.56,1.51,9.86,9.86,0,0,1-1.71-.09,11.7,11.7,0,0,0-1.45,0,.78.78,0,0,0-.68.61,6.41,6.41,0,0,0-.24,2.3c0,.06.15.16.24.17.52,0,1.05,0,1.57.1a3.31,3.31,0,0,1,.82.22,2.15,2.15,0,0,1,1,3.25,1.35,1.35,0,0,1-.87.63c-.66.13-1.33.21-2,.3A6.24,6.24,0,0,1,133.13,70.23Z"/></clipPath></defs><title>logo-成就系统</title><g id="图层_1" data-name="图层 1"><rect class="cls-1" width="216" height="216"/><circle class="cls-2" cx="109.68" cy="72.08" r="17"/><g class="cls-3"><rect class="cls-4" x="102.51" y="63.86" width="8.18" height="0.3"/><rect class="cls-5" x="102.51" y="64.16" width="8.18" height="0.67"/><rect class="cls-6" x="102.51" y="64.83" width="8.18" height="0.67"/><rect class="cls-7" x="102.51" y="65.5" width="8.18" height="0.67"/><rect class="cls-8" x="102.51" y="66.17" width="8.18" height="0.67"/><rect class="cls-9" x="102.51" y="66.84" width="8.18" height="0.67"/><rect class="cls-10" x="102.51" y="67.51" width="8.18" height="0.67"/><rect class="cls-11" x="102.51" y="68.18" width="8.18" height="0.67"/><rect class="cls-12" x="102.51" y="68.85" width="8.18" height="0.67"/><rect class="cls-13" x="102.51" y="69.52" width="8.18" height="0.67"/><rect class="cls-14" x="102.51" y="70.19" width="8.18" height="0.67"/><rect class="cls-15" x="102.51" y="70.87" width="8.18" height="0.67"/><rect class="cls-16" x="102.51" y="71.54" width="8.18" height="0.67"/><rect class="cls-17" x="102.51" y="72.21" width="8.18" height="0.67"/><rect class="cls-18" x="102.51" y="72.88" width="8.18" height="0.67"/><rect class="cls-19" x="102.51" y="73.55" width="8.18" height="0.67"/><rect class="cls-20" x="102.51" y="74.22" width="8.18" height="0.67"/><rect class="cls-21" x="102.51" y="74.89" width="8.18"/><rect class="cls-22" x="97.03" y="56.61" width="22.49" height="0.17"/><rect class="cls-22" x="97.03" y="56.77" width="22.49" height="0.67"/><rect class="cls-23" x="97.03" y="57.44" width="22.49" height="0.67"/><rect class="cls-24" x="97.03" y="58.12" width="22.49" height="0.67"/><rect class="cls-25" x="97.03" y="58.79" width="22.49" height="0.67"/><rect class="cls-26" x="97.03" y="59.46" width="22.49" height="0.67"/><rect class="cls-27" x="97.03" y="60.13" width="22.49" height="0.67"/><rect class="cls-28" x="97.03" y="60.8" width="22.49" height="0.67"/><rect class="cls-29" x="97.03" y="61.47" width="22.49" height="0.67"/><rect class="cls-30" x="97.03" y="62.14" width="22.49" height="0.67"/><rect class="cls-31" x="97.03" y="62.81" width="22.49" height="0.67"/><rect class="cls-4" x="97.03" y="63.48" width="22.49" height="0.67"/><rect class="cls-5" x="97.03" y="64.16" width="22.49" height="0.67"/><rect class="cls-6" x="97.03" y="64.83" width="22.49" height="0.67"/><rect class="cls-7" x="97.03" y="65.5" width="22.49" height="0.67"/><rect class="cls-8" x="97.03" y="66.17" width="22.49" height="0.67"/><rect class="cls-9" x="97.03" y="66.84" width="22.49" height="0.67"/><rect class="cls-10" x="97.03" y="67.51" width="22.49" height="0.67"/><rect class="cls-11" x="97.03" y="68.18" width="22.49" height="0.67"/><rect class="cls-12" x="97.03" y="68.85" width="22.49" height="0.67"/><rect class="cls-13" x="97.03" y="69.52" width="22.49" height="0.67"/><rect class="cls-14" x="97.03" y="70.19" width="22.49" height="0.67"/><rect class="cls-15" x="97.03" y="70.87" width="22.49" height="0.67"/><rect class="cls-16" x="97.03" y="71.54" width="22.49" height="0.67"/><rect class="cls-17" x="97.03" y="72.21" width="22.49" height="0.67"/><rect class="cls-18" x="97.03" y="72.88" width="22.49" height="0.67"/><rect class="cls-19" x="97.03" y="73.55" width="22.49" height="0.67"/><rect class="cls-20" x="97.03" y="74.22" width="22.49" height="0.67"/><rect class="cls-21" x="97.03" y="74.89" width="22.49" height="0.67"/><rect class="cls-32" x="97.03" y="75.56" width="22.49" height="0.67"/><rect class="cls-33" x="97.03" y="76.23" width="22.49" height="0.67"/><rect class="cls-34" x="97.03" y="76.9" width="22.49" height="0.67"/><rect class="cls-35" x="97.03" y="77.58" width="22.49" height="0.67"/><rect class="cls-36" x="97.03" y="78.25" width="22.49" height="0.67"/><rect class="cls-37" x="97.03" y="78.92" width="22.49" height="0.67"/><rect class="cls-38" x="97.03" y="79.59" width="22.49" height="0.67"/><rect class="cls-39" x="97.03" y="80.26" width="22.49" height="0.67"/><rect class="cls-40" x="97.03" y="80.93" width="22.49" height="0.67"/><rect class="cls-41" x="97.03" y="81.6" width="22.49" height="0.67"/><rect class="cls-42" x="97.03" y="82.27" width="22.49" height="0.67"/><rect class="cls-43" x="97.03" y="82.94" width="22.49" height="0.67"/><rect class="cls-44" x="97.03" y="83.62" width="22.49" height="0.67"/><rect class="cls-45" x="97.03" y="84.29" width="22.49" height="0.67"/><rect class="cls-46" x="97.03" y="84.96" width="22.49" height="0.67"/></g><g class="cls-47"><rect class="cls-22" x="33.7" y="58.28" width="14.36" height="0.42"/><rect class="cls-22" x="33.7" y="58.69" width="14.36" height="0.64"/><rect class="cls-23" x="33.7" y="59.33" width="14.36" height="0.64"/><rect class="cls-24" x="33.7" y="59.97" width="14.36" height="0.64"/><rect class="cls-25" x="33.7" y="60.61" width="14.36" height="0.64"/><rect class="cls-26" x="33.7" y="61.24" width="14.36" height="0.64"/><rect class="cls-27" x="33.7" y="61.88" width="14.36" height="0.64"/><rect class="cls-28" x="33.7" y="62.52" width="14.36" height="0.64"/><rect class="cls-29" x="33.7" y="63.15" width="14.36" height="0.64"/><rect class="cls-30" x="33.7" y="63.79" width="14.36" height="0.64"/><rect class="cls-31" x="33.7" y="64.43" width="14.36" height="0.64"/><rect class="cls-4" x="33.7" y="65.06" width="14.36" height="0.64"/><rect class="cls-5" x="33.7" y="65.7" width="14.36" height="0.64"/><rect class="cls-6" x="33.7" y="66.34" width="14.36" height="0.64"/><rect class="cls-7" x="33.7" y="66.97" width="14.36" height="0.64"/><rect class="cls-8" x="33.7" y="67.61" width="14.36" height="0.64"/><rect class="cls-9" x="33.7" y="68.25" width="14.36" height="0.64"/><rect class="cls-10" x="33.7" y="68.88" width="14.36" height="0.64"/><rect class="cls-11" x="33.7" y="69.52" width="14.36" height="0.64"/><rect class="cls-12" x="33.7" y="70.16" width="14.36" height="0.64"/><rect class="cls-13" x="33.7" y="70.79" width="14.36" height="0.64"/><rect class="cls-14" x="33.7" y="71.43" width="14.36" height="0.64"/><rect class="cls-15" x="33.7" y="72.07" width="14.36" height="0.64"/><rect class="cls-16" x="33.7" y="72.7" width="14.36" height="0.64"/><rect class="cls-17" x="33.7" y="73.34" width="14.36" height="0.64"/><rect class="cls-18" x="33.7" y="73.98" width="14.36" height="0.64"/><rect class="cls-19" x="33.7" y="74.61" width="14.36" height="0.64"/><rect class="cls-20" x="33.7" y="75.25" width="14.36" height="0.64"/><rect class="cls-21" x="33.7" y="75.89" width="14.36" height="0.64"/><rect class="cls-32" x="33.7" y="76.52" width="14.36" height="0.64"/><rect class="cls-33" x="33.7" y="77.16" width="14.36" height="0.64"/><rect class="cls-34" x="33.7" y="77.8" width="14.36" height="0.64"/><rect class="cls-35" x="33.7" y="78.43" width="14.36" height="0.64"/><rect class="cls-36" x="33.7" y="79.07" width="14.36" height="0.64"/><rect class="cls-37" x="33.7" y="79.71" width="14.36" height="0.64"/><rect class="cls-38" x="33.7" y="80.34" width="14.36" height="0.64"/><rect class="cls-39" x="33.7" y="80.98" width="14.36" height="0.64"/><rect class="cls-40" x="33.7" y="81.62" width="14.36" height="0.64"/><rect class="cls-41" x="33.7" y="82.25" width="14.36" height="0.64"/><rect class="cls-42" x="33.7" y="82.89" width="14.36" height="0.64"/><rect class="cls-43" x="33.7" y="83.53" width="14.36" height="0.64"/><rect class="cls-44" x="33.7" y="84.17" width="14.36" height="0.64"/><rect class="cls-45" x="33.7" y="84.8" width="14.36" height="0.64"/><rect class="cls-46" x="33.7" y="85.44" width="14.36" height="0.64"/><rect class="cls-46" x="33.7" y="86.08" width="14.36" height="0.1"/></g><g class="cls-48"><rect class="cls-29" x="78.88" y="69.91" width="8.4" height="0.61"/><rect class="cls-30" x="78.88" y="70.52" width="8.4" height="0.65"/><rect class="cls-31" x="78.88" y="71.17" width="8.4" height="0.65"/><rect class="cls-4" x="78.88" y="71.83" width="8.4" height="0.65"/><rect class="cls-5" x="78.88" y="72.48" width="8.4" height="0.65"/><rect class="cls-6" x="78.88" y="73.13" width="8.4" height="0.65"/><rect class="cls-7" x="78.88" y="73.78" width="8.4" height="0.65"/><rect class="cls-8" x="78.88" y="74.43" width="8.4" height="0.65"/><rect class="cls-9" x="78.88" y="75.08" width="8.4" height="0.65"/><rect class="cls-10" x="78.88" y="75.73" width="8.4" height="0.65"/><rect class="cls-11" x="78.88" y="76.38" width="8.4" height="0.65"/><rect class="cls-12" x="78.88" y="77.04" width="8.4" height="0.65"/><rect class="cls-13" x="78.88" y="77.69" width="8.4" height="0.65"/><rect class="cls-14" x="78.88" y="78.34" width="8.4" height="0.65"/><rect class="cls-15" x="78.88" y="78.99" width="8.4" height="0.65"/><rect class="cls-16" x="78.88" y="79.64" width="8.4" height="0.65"/><rect class="cls-17" x="78.88" y="80.29" width="8.4" height="0.65"/><rect class="cls-18" x="78.88" y="80.94" width="8.4" height="0.48"/><rect class="cls-22" x="73.15" y="64.46" width="20.18" height="0.86"/><rect class="cls-22" x="73.15" y="65.31" width="20.18" height="0.65"/><rect class="cls-23" x="73.15" y="65.96" width="20.18" height="0.65"/><rect class="cls-24" x="73.15" y="66.62" width="20.18" height="0.65"/><rect class="cls-25" x="73.15" y="67.27" width="20.18" height="0.65"/><rect class="cls-26" x="73.15" y="67.92" width="20.18" height="0.65"/><rect class="cls-27" x="73.15" y="68.57" width="20.18" height="0.65"/><rect class="cls-28" x="73.15" y="69.22" width="20.18" height="0.65"/><rect class="cls-29" x="73.15" y="69.87" width="20.18" height="0.65"/><rect class="cls-30" x="73.15" y="70.52" width="20.18" height="0.65"/><rect class="cls-31" x="73.15" y="71.17" width="20.18" height="0.65"/><rect class="cls-4" x="73.15" y="71.83" width="20.18" height="0.65"/><rect class="cls-5" x="73.15" y="72.48" width="20.18" height="0.65"/><rect class="cls-6" x="73.15" y="73.13" width="20.18" height="0.65"/><rect class="cls-7" x="73.15" y="73.78" width="20.18" height="0.65"/><rect class="cls-8" x="73.15" y="74.43" width="20.18" height="0.65"/><rect class="cls-9" x="73.15" y="75.08" width="20.18" height="0.65"/><rect class="cls-10" x="73.15" y="75.73" width="20.18" height="0.65"/><rect class="cls-11" x="73.15" y="76.38" width="20.18" height="0.65"/><rect class="cls-12" x="73.15" y="77.04" width="20.18" height="0.65"/><rect class="cls-13" x="73.15" y="77.69" width="20.18" height="0.65"/><rect class="cls-14" x="73.15" y="78.34" width="20.18" height="0.65"/><rect class="cls-15" x="73.15" y="78.99" width="20.18" height="0.65"/><rect class="cls-16" x="73.15" y="79.64" width="20.18" height="0.65"/><rect class="cls-17" x="73.15" y="80.29" width="20.18" height="0.65"/><rect class="cls-18" x="73.15" y="80.94" width="20.18" height="0.65"/><rect class="cls-19" x="73.15" y="81.6" width="20.18" height="0.65"/><rect class="cls-20" x="73.15" y="82.25" width="20.18" height="0.65"/><rect class="cls-21" x="73.15" y="82.9" width="20.18" height="0.65"/><rect class="cls-32" x="73.15" y="83.55" width="20.18" height="0.65"/><rect class="cls-33" x="73.15" y="84.2" width="20.18" height="0.65"/><rect class="cls-34" x="73.15" y="84.85" width="20.18" height="0.65"/><rect class="cls-35" x="73.15" y="85.5" width="20.18" height="0.65"/><rect class="cls-36" x="73.15" y="86.15" width="20.18" height="0.65"/><rect class="cls-37" x="73.15" y="86.81" width="20.18" height="0.65"/><rect class="cls-38" x="73.15" y="87.46" width="20.18" height="0.65"/><rect class="cls-39" x="73.15" y="88.11" width="20.18" height="0.65"/><rect class="cls-40" x="73.15" y="88.76" width="20.18" height="0.65"/><rect class="cls-41" x="73.15" y="89.41" width="20.18" height="0.65"/><rect class="cls-42" x="73.15" y="90.06" width="20.18" height="0.65"/><rect class="cls-43" x="73.15" y="90.71" width="20.18" height="0.65"/><rect class="cls-44" x="73.15" y="91.36" width="20.18" height="0.65"/><rect class="cls-45" x="73.15" y="92.02" width="20.18" height="0.65"/><rect class="cls-46" x="73.15" y="92.67" width="20.18" height="0.65"/><rect class="cls-46" x="73.15" y="93.32" width="20.18" height="0.49"/></g><g class="cls-49"><rect class="cls-17" x="55.05" y="76.51" width="7.29" height="0.37"/><rect class="cls-18" x="55.05" y="76.87" width="7.29" height="0.48"/><rect class="cls-19" x="55.05" y="77.36" width="7.29" height="0.48"/><rect class="cls-20" x="55.05" y="77.84" width="7.29" height="0.48"/><rect class="cls-21" x="55.05" y="78.33" width="7.29" height="0.48"/><rect class="cls-32" x="55.05" y="78.81" width="7.29" height="0.48"/><rect class="cls-33" x="55.05" y="79.29" width="7.29" height="0.48"/><rect class="cls-34" x="55.05" y="79.78" width="7.29" height="0.48"/><rect class="cls-35" x="55.05" y="80.26" width="7.29" height="0.48"/><rect class="cls-36" x="55.05" y="80.74" width="7.29" height="0.48"/><rect class="cls-37" x="55.05" y="81.23" width="7.29" height="0.48"/><rect class="cls-38" x="55.05" y="81.71" width="7.29" height="0.38"/><rect class="cls-22" x="48.6" y="65.19" width="20.49" height="0.07"/><rect class="cls-22" x="48.6" y="65.26" width="20.49" height="0.48"/><rect class="cls-23" x="48.6" y="65.75" width="20.49" height="0.48"/><rect class="cls-24" x="48.6" y="66.23" width="20.49" height="0.48"/><rect class="cls-25" x="48.6" y="66.71" width="20.49" height="0.48"/><rect class="cls-26" x="48.6" y="67.2" width="20.49" height="0.48"/><rect class="cls-27" x="48.6" y="67.68" width="20.49" height="0.48"/><rect class="cls-28" x="48.6" y="68.17" width="20.49" height="0.48"/><rect class="cls-29" x="48.6" y="68.65" width="20.49" height="0.48"/><rect class="cls-30" x="48.6" y="69.13" width="20.49" height="0.48"/><rect class="cls-31" x="48.6" y="69.62" width="20.49" height="0.48"/><rect class="cls-4" x="48.6" y="70.1" width="20.49" height="0.48"/><rect class="cls-5" x="48.6" y="70.58" width="20.49" height="0.48"/><rect class="cls-6" x="48.6" y="71.07" width="20.49" height="0.48"/><rect class="cls-7" x="48.6" y="71.55" width="20.49" height="0.48"/><rect class="cls-8" x="48.6" y="72.04" width="20.49" height="0.48"/><rect class="cls-9" x="48.6" y="72.52" width="20.49" height="0.48"/><rect class="cls-10" x="48.6" y="73" width="20.49" height="0.48"/><rect class="cls-11" x="48.6" y="73.49" width="20.49" height="0.48"/><rect class="cls-12" x="48.6" y="73.97" width="20.49" height="0.48"/><rect class="cls-13" x="48.6" y="74.45" width="20.49" height="0.48"/><rect class="cls-14" x="48.6" y="74.94" width="20.49" height="0.48"/><rect class="cls-15" x="48.6" y="75.42" width="20.49" height="0.48"/><rect class="cls-16" x="48.6" y="75.91" width="20.49" height="0.48"/><rect class="cls-17" x="48.6" y="76.39" width="20.49" height="0.48"/><rect class="cls-18" x="48.6" y="76.87" width="20.49" height="0.48"/><rect class="cls-19" x="48.6" y="77.36" width="20.49" height="0.48"/><rect class="cls-20" x="48.6" y="77.84" width="20.49" height="0.48"/><rect class="cls-21" x="48.6" y="78.33" width="20.49" height="0.48"/><rect class="cls-32" x="48.6" y="78.81" width="20.49" height="0.48"/><rect class="cls-33" x="48.6" y="79.29" width="20.49" height="0.48"/><rect class="cls-34" x="48.6" y="79.78" width="20.49" height="0.48"/><rect class="cls-35" x="48.6" y="80.26" width="20.49" height="0.48"/><rect class="cls-36" x="48.6" y="80.74" width="20.49" height="0.48"/><rect class="cls-37" x="48.6" y="81.23" width="20.49" height="0.48"/><rect class="cls-38" x="48.6" y="81.71" width="20.49" height="0.48"/><rect class="cls-39" x="48.6" y="82.2" width="20.49" height="0.48"/><rect class="cls-40" x="48.6" y="82.68" width="20.49" height="0.48"/><rect class="cls-41" x="48.6" y="83.16" width="20.49" height="0.48"/><rect class="cls-42" x="48.6" y="83.65" width="20.49" height="0.48"/><rect class="cls-43" x="48.6" y="84.13" width="20.49" height="0.48"/><rect class="cls-44" x="48.6" y="84.62" width="20.49" height="0.48"/><rect class="cls-45" x="48.6" y="85.1" width="20.49" height="0.48"/><rect class="cls-46" x="48.6" y="85.58" width="20.49" height="0.48"/><rect class="cls-46" x="48.6" y="86.07" width="20.49" height="0.19"/></g><g class="cls-50"><rect class="cls-22" x="140.22" y="65.13" width="18.33" height="0.17"/><rect class="cls-22" x="140.22" y="65.29" width="18.33" height="0.48"/><rect class="cls-23" x="140.22" y="65.78" width="18.33" height="0.48"/><rect class="cls-24" x="140.22" y="66.26" width="18.33" height="0.48"/><rect class="cls-25" x="140.22" y="66.74" width="18.33" height="0.48"/><rect class="cls-26" x="140.22" y="67.23" width="18.33" height="0.48"/><rect class="cls-27" x="140.22" y="67.71" width="18.33" height="0.48"/><rect class="cls-28" x="140.22" y="68.19" width="18.33" height="0.48"/><rect class="cls-29" x="140.22" y="68.68" width="18.33" height="0.48"/><rect class="cls-30" x="140.22" y="69.16" width="18.33" height="0.48"/><rect class="cls-31" x="140.22" y="69.64" width="18.33" height="0.48"/><rect class="cls-4" x="140.22" y="70.13" width="18.33" height="0.48"/><rect class="cls-5" x="140.22" y="70.61" width="18.33" height="0.48"/><rect class="cls-6" x="140.22" y="71.09" width="18.33" height="0.48"/><rect class="cls-7" x="140.22" y="71.57" width="18.33" height="0.48"/><rect class="cls-8" x="140.22" y="72.06" width="18.33" height="0.48"/><rect class="cls-9" x="140.22" y="72.54" width="18.33" height="0.48"/><rect class="cls-10" x="140.22" y="73.02" width="18.33" height="0.48"/><rect class="cls-11" x="140.22" y="73.51" width="18.33" height="0.48"/><rect class="cls-12" x="140.22" y="73.99" width="18.33" height="0.48"/><rect class="cls-13" x="140.22" y="74.47" width="18.33" height="0.48"/><rect class="cls-14" x="140.22" y="74.96" width="18.33" height="0.48"/><rect class="cls-15" x="140.22" y="75.44" width="18.33" height="0.48"/><rect class="cls-16" x="140.22" y="75.92" width="18.33" height="0.48"/><rect class="cls-17" x="140.22" y="76.41" width="18.33" height="0.48"/><rect class="cls-18" x="140.22" y="76.89" width="18.33" height="0.48"/><rect class="cls-19" x="140.22" y="77.37" width="18.33" height="0.48"/><rect class="cls-20" x="140.22" y="77.85" width="18.33" height="0.48"/><rect class="cls-21" x="140.22" y="78.34" width="18.33" height="0.48"/><rect class="cls-32" x="140.22" y="78.82" width="18.33" height="0.48"/><rect class="cls-33" x="140.22" y="79.3" width="18.33" height="0.48"/><rect class="cls-34" x="140.22" y="79.79" width="18.33" height="0.48"/><rect class="cls-35" x="140.22" y="80.27" width="18.33" height="0.48"/><rect class="cls-36" x="140.22" y="80.75" width="18.33" height="0.48"/><rect class="cls-37" x="140.22" y="81.24" width="18.33" height="0.48"/><rect class="cls-38" x="140.22" y="81.72" width="18.33" height="0.48"/><rect class="cls-39" x="140.22" y="82.2" width="18.33" height="0.48"/><rect class="cls-40" x="140.22" y="82.69" width="18.33" height="0.48"/><rect class="cls-41" x="140.22" y="83.17" width="18.33" height="0.48"/><rect class="cls-42" x="140.22" y="83.65" width="18.33" height="0.48"/><rect class="cls-43" x="140.22" y="84.13" width="18.33" height="0.48"/><rect class="cls-44" x="140.22" y="84.62" width="18.33" height="0.48"/><rect class="cls-45" x="140.22" y="85.1" width="18.33" height="0.48"/><rect class="cls-46" x="140.22" y="85.58" width="18.33" height="0.48"/><rect class="cls-46" x="140.22" y="86.07" width="18.33" height="0.14"/></g><g class="cls-51"><rect class="cls-22" x="164" y="65.17" width="18.31" height="0.13"/><rect class="cls-22" x="164" y="65.3" width="18.31" height="0.48"/><rect class="cls-23" x="164" y="65.78" width="18.31" height="0.48"/><rect class="cls-24" x="164" y="66.27" width="18.31" height="0.48"/><rect class="cls-25" x="164" y="66.75" width="18.31" height="0.48"/><rect class="cls-26" x="164" y="67.23" width="18.31" height="0.48"/><rect class="cls-27" x="164" y="67.72" width="18.31" height="0.48"/><rect class="cls-28" x="164" y="68.2" width="18.31" height="0.48"/><rect class="cls-29" x="164" y="68.68" width="18.31" height="0.48"/><rect class="cls-30" x="164" y="69.17" width="18.31" height="0.48"/><rect class="cls-31" x="164" y="69.65" width="18.31" height="0.48"/><rect class="cls-4" x="164" y="70.13" width="18.31" height="0.48"/><rect class="cls-5" x="164" y="70.62" width="18.31" height="0.48"/><rect class="cls-6" x="164" y="71.1" width="18.31" height="0.48"/><rect class="cls-7" x="164" y="71.58" width="18.31" height="0.48"/><rect class="cls-8" x="164" y="72.06" width="18.31" height="0.48"/><rect class="cls-9" x="164" y="72.55" width="18.31" height="0.48"/><rect class="cls-10" x="164" y="73.03" width="18.31" height="0.48"/><rect class="cls-11" x="164" y="73.51" width="18.31" height="0.48"/><rect class="cls-12" x="164" y="74" width="18.31" height="0.48"/><rect class="cls-13" x="164" y="74.48" width="18.31" height="0.48"/><rect class="cls-14" x="164" y="74.96" width="18.31" height="0.48"/><rect class="cls-15" x="164" y="75.45" width="18.31" height="0.48"/><rect class="cls-16" x="164" y="75.93" width="18.31" height="0.48"/><rect class="cls-17" x="164" y="76.41" width="18.31" height="0.48"/><rect class="cls-18" x="164" y="76.89" width="18.31" height="0.48"/><rect class="cls-19" x="164" y="77.38" width="18.31" height="0.48"/><rect class="cls-20" x="164" y="77.86" width="18.31" height="0.48"/><rect class="cls-21" x="164" y="78.34" width="18.31" height="0.48"/><rect class="cls-32" x="164" y="78.83" width="18.31" height="0.48"/><rect class="cls-33" x="164" y="79.31" width="18.31" height="0.48"/><rect class="cls-34" x="164" y="79.79" width="18.31" height="0.48"/><rect class="cls-35" x="164" y="80.28" width="18.31" height="0.48"/><rect class="cls-36" x="164" y="80.76" width="18.31" height="0.48"/><rect class="cls-37" x="164" y="81.24" width="18.31" height="0.48"/><rect class="cls-38" x="164" y="81.72" width="18.31" height="0.48"/><rect class="cls-39" x="164" y="82.21" width="18.31" height="0.48"/><rect class="cls-40" x="164" y="82.69" width="18.31" height="0.48"/><rect class="cls-41" x="164" y="83.17" width="18.31" height="0.48"/><rect class="cls-42" x="164" y="83.66" width="18.31" height="0.48"/><rect class="cls-43" x="164" y="84.14" width="18.31" height="0.48"/><rect class="cls-44" x="164" y="84.62" width="18.31" height="0.48"/><rect class="cls-45" x="164" y="85.11" width="18.31" height="0.48"/><rect class="cls-46" x="164" y="85.59" width="18.31" height="0.48"/><rect class="cls-46" x="164" y="86.07" width="18.31" height="0.16"/></g><g class="cls-52"><rect class="cls-22" x="123.49" y="57.89" width="15.5" height="0.15"/><rect class="cls-22" x="123.49" y="58.05" width="15.5" height="0.65"/><rect class="cls-23" x="123.49" y="58.7" width="15.5" height="0.65"/><rect class="cls-24" x="123.49" y="59.35" width="15.5" height="0.65"/><rect class="cls-25" x="123.49" y="60" width="15.5" height="0.65"/><rect class="cls-26" x="123.49" y="60.65" width="15.5" height="0.65"/><rect class="cls-27" x="123.49" y="61.3" width="15.5" height="0.65"/><rect class="cls-28" x="123.49" y="61.95" width="15.5" height="0.65"/><rect class="cls-29" x="123.49" y="62.61" width="15.5" height="0.65"/><rect class="cls-30" x="123.49" y="63.26" width="15.5" height="0.65"/><rect class="cls-31" x="123.49" y="63.91" width="15.5" height="0.65"/><rect class="cls-4" x="123.49" y="64.56" width="15.5" height="0.65"/><rect class="cls-5" x="123.49" y="65.21" width="15.5" height="0.65"/><rect class="cls-6" x="123.49" y="65.86" width="15.5" height="0.65"/><rect class="cls-7" x="123.49" y="66.52" width="15.5" height="0.65"/><rect class="cls-8" x="123.49" y="67.17" width="15.5" height="0.65"/><rect class="cls-9" x="123.49" y="67.82" width="15.5" height="0.65"/><rect class="cls-10" x="123.49" y="68.47" width="15.5" height="0.65"/><rect class="cls-11" x="123.49" y="69.12" width="15.5" height="0.65"/><rect class="cls-12" x="123.49" y="69.77" width="15.5" height="0.65"/><rect class="cls-13" x="123.49" y="70.42" width="15.5" height="0.65"/><rect class="cls-14" x="123.49" y="71.08" width="15.5" height="0.65"/><rect class="cls-15" x="123.49" y="71.73" width="15.5" height="0.65"/><rect class="cls-16" x="123.49" y="72.38" width="15.5" height="0.65"/><rect class="cls-17" x="123.49" y="73.03" width="15.5" height="0.65"/><rect class="cls-18" x="123.49" y="73.68" width="15.5" height="0.65"/><rect class="cls-19" x="123.49" y="74.33" width="15.5" height="0.65"/><rect class="cls-20" x="123.49" y="74.98" width="15.5" height="0.65"/><rect class="cls-21" x="123.49" y="75.64" width="15.5" height="0.65"/><rect class="cls-32" x="123.49" y="76.29" width="15.5" height="0.65"/><rect class="cls-33" x="123.49" y="76.94" width="15.5" height="0.65"/><rect class="cls-34" x="123.49" y="77.59" width="15.5" height="0.65"/><rect class="cls-35" x="123.49" y="78.24" width="15.5" height="0.65"/><rect class="cls-36" x="123.49" y="78.89" width="15.5" height="0.65"/><rect class="cls-37" x="123.49" y="79.54" width="15.5" height="0.65"/><rect class="cls-38" x="123.49" y="80.2" width="15.5" height="0.65"/><rect class="cls-39" x="123.49" y="80.85" width="15.5" height="0.65"/><rect class="cls-40" x="123.49" y="81.5" width="15.5" height="0.65"/><rect class="cls-41" x="123.49" y="82.15" width="15.5" height="0.65"/><rect class="cls-42" x="123.49" y="82.8" width="15.5" height="0.65"/><rect class="cls-43" x="123.49" y="83.45" width="15.5" height="0.65"/><rect class="cls-44" x="123.49" y="84.1" width="15.5" height="0.65"/><rect class="cls-45" x="123.49" y="84.76" width="15.5" height="0.65"/><rect class="cls-46" x="123.49" y="85.41" width="15.5" height="0.65"/><rect class="cls-46" x="123.49" y="86.06" width="15.5" height="0.05"/></g><path class="cls-34" d="M66.12,121.11a42.21,42.21,0,0,1-6.46,12.56c1.26,3.15,2.71,5.09,4.27,5.09,1,0,1.41-1.9,1.64-6.69a8.86,8.86,0,0,0,3,1.93c-.56,6.54-1.82,8.29-4.87,8.29-2.71,0-4.86-2.08-6.53-5.58a34.28,34.28,0,0,1-7,5.69,18,18,0,0,0-2.53-2.83,29.22,29.22,0,0,0,8.1-6.5,69.71,69.71,0,0,1-2.64-15.3H41.16v4.5h9.33v1.33c-.19,8.06-.37,11.26-1.15,12.3A3.34,3.34,0,0,1,47,137.09a28.05,28.05,0,0,1-4.38.07,8.39,8.39,0,0,0-.93-3.23c1.52.15,3,.18,3.56.18a1.33,1.33,0,0,0,1.15-.44c.41-.52.64-2.64.75-8.25h-6c0,5.28-.66,12.71-3.93,17.5a14.59,14.59,0,0,0-2.9-2.38c3-4.46,3.23-10.85,3.23-15.64V114.39H52.83c-.11-1.93-.19-3.93-.19-5.9h3.64q-.06,3,.11,5.9h7.17a40.46,40.46,0,0,0-5.83-3.9l2.08-2.11a39,39,0,0,1,6.42,4.12l-1.78,1.89h3.79v3.38H56.58a71.73,71.73,0,0,0,1.82,11.74,37.46,37.46,0,0,0,4.23-9.25Z"/><path class="cls-34" d="M78.31,129.92a32.09,32.09,0,0,1-3.71,9.32,19.3,19.3,0,0,0-2.45-1.63,22.76,22.76,0,0,0,3.27-8.32Zm11-14H72.52v-3H80a32.66,32.66,0,0,0-1.45-3.75l3.16-.7a34.82,34.82,0,0,1,1.85,4.45h5.8Zm-6.46,11.85v11.36c0,1.41-.23,2.27-1.19,2.71a10.05,10.05,0,0,1-4.24.52,10.26,10.26,0,0,0-1-2.86c1.22,0,2.41,0,2.78,0s.52-.11.52-.48V127.73H74.34V118.4H87.9v9.33ZM77.35,125h7.39v-3.91H77.35Zm9,3.86a28,28,0,0,1,2.79,6.5l-2.64,1.18a26,26,0,0,0-2.6-6.57Zm16,10.25a1.53,1.53,0,0,0,.9-.19c.22-.07.37-.41.48-1a33.44,33.44,0,0,0,.15-4.05,8,8,0,0,0,2.71,1.45,26.44,26.44,0,0,1-.45,4.42,2.7,2.7,0,0,1-1.3,1.6,5.25,5.25,0,0,1-2.15.41h-2.34a3.94,3.94,0,0,1-2.41-.75c-.6-.52-.86-1.19-.86-3.64V124.75c-1,6.91-3.16,13.41-7.91,17.83a10.64,10.64,0,0,0-2.49-2.11c5.2-4.61,7-11.89,7.65-19.43H89.75v-3.12h4.76c.18-3.19.18-6.39.18-9.4H98c0,3-.07,6.21-.26,9.4h8.17V121H97.52c-.08.82-.19,1.64-.26,2.45h2.82v14.15c0,.71,0,1.15.22,1.3a1.51,1.51,0,0,0,.75.19Zm.23-22.14a27.74,27.74,0,0,0-3.72-5.68l2.27-1.3a25.83,25.83,0,0,1,3.86,5.42Z"/><path class="cls-34" d="M121.52,132.59a39.11,39.11,0,0,1-8.21,7.88,19,19,0,0,0-3-2.31,27.41,27.41,0,0,0,7.73-6.79Zm7.09-3.49v9.32c0,1.79-.41,2.75-1.78,3.27s-3.31.56-6,.56a11.91,11.91,0,0,0-1.3-3.38c2.08.11,4.2.11,4.83.07s.74-.15.74-.59v-9c-9.39.74-10.92,1-12,1.37-.19-.59-.67-2.19-1-3.12a17.76,17.76,0,0,0,5.12-2,68.64,68.64,0,0,0,6.47-3.57c-6.76.45-8,.64-8.73.93a24.49,24.49,0,0,0-1-3,7.54,7.54,0,0,0,2.75-1.41,44,44,0,0,0,5.46-4.65c-3.23.26-6.39.45-9.4.56a10.65,10.65,0,0,0-.85-3c8.95-.41,19.46-1.37,25.52-2.82l2.48,2.82a104.14,104.14,0,0,1-13,2,59.17,59.17,0,0,1-7.13,6.09l8.32-.44c1.89-1.3,3.83-2.71,5.57-4.16l2.56,2.23a89.52,89.52,0,0,1-15.45,9.58l14-.93c-.89-.93-1.74-1.82-2.6-2.64l2.64-1.37a50.52,50.52,0,0,1,7.35,8.28l-2.71,1.67a25,25,0,0,0-2.45-3.3Zm5.5,2.08a69,69,0,0,1,8.62,7.28l-3,2a65.06,65.06,0,0,0-8.4-7.5Z"/><path class="cls-34" d="M159.34,127a13.47,13.47,0,0,0,.07,3.08c-9,2-10.4,2.41-11.21,2.93a27.43,27.43,0,0,0-1.16-3.23c.86-.18,1.71-1,2.86-2.41a46.21,46.21,0,0,0,3.2-4.2c-3.75.45-4.57.67-5.16,1a26,26,0,0,0-1.23-3.49c.71-.19,1.41-1,2.19-2.23a47.24,47.24,0,0,0,4.87-10.11l3.53,1.6a58.55,58.55,0,0,1-5.87,10.44l3.71-.37a37.61,37.61,0,0,0,2.23-4l3,1.86a73.67,73.67,0,0,1-7.17,10.4Zm.56,9.5c-4.13,1.53-8.55,3.09-11.93,4.27l-.85-3.45c3.08-.82,7.69-2.34,12.18-3.75Zm7.68-9.73c-.29,8-1.37,13-8,15.86a10.53,10.53,0,0,0-2.12-2.86c5.83-2.26,6.5-6.16,6.76-13Zm10.37,1a20.69,20.69,0,0,0-1.38-2.64c-13,1.26-14.71,1.49-15.78,1.93a21.84,21.84,0,0,0-1.12-3.34,4.94,4.94,0,0,0,2.49-1.15,60.7,60.7,0,0,0,4.61-5.79h-6.24v-3.12h8.58c-.41-1.23-1.16-3-1.79-4.42l3.23-.78a34.58,34.58,0,0,1,2.08,4.49l-2.34.71h10.33v3.12h-9.77c-1.48,2-3.3,4.53-4.83,6.42l8.92-.78c-.75-1.08-1.45-2.15-2.16-3.08l2.68-1.38a56.27,56.27,0,0,1,5.38,8.21Zm-.67,11.25c.67,0,.81-.78.93-5.27a9.69,9.69,0,0,0,2.93,1.37c-.26,5.35-1,6.84-3.57,6.84h-2.89c-2.86,0-3.57-1-3.57-4.13V126.69h3.38v11.06c0,1,.11,1.19.78,1.19Z"/></g></svg>